<?xml version="1.0" encoding="UTF-8"?>
<svg width="298px" height="480px" viewBox="0 0 298 480" version="1.1" xmlns="http://www.w3.org/2000/svg" xmlns:xlink="http://www.w3.org/1999/xlink">
    <!-- Generator: Sketch 52.5 (67469) - http://www.bohemiancoding.com/sketch -->
    <title>FirstPerson</title>
    <desc>Created with Sketch.</desc>
    <g id="Page-3" stroke="none" stroke-width="1" fill="none" fill-rule="evenodd">
        <g id="Group" transform="translate(0.000000, -59.000000)">
            <g id="FirstPerson" transform="translate(0.000000, 59.000000)">
                <path d="M156.21228,382.809331 C159.429523,383.975865 161.087617,387.525666 159.921047,390.737618 C158.752881,393.948774 155.19971,395.606144 151.981668,394.440407 L127.081544,385.408535 C123.865896,384.242797 122.206207,380.6922 123.373575,377.481841 C124.542539,374.269889 126.35543,368.998973 129.571876,370.165507 L156.21228,382.809331" id="Fill-117" fill="#4A959A"></path>
                <path d="M183.930883,382.767331 L168.336986,388.988048 C166.18737,390.077291 163.562188,389.220717 162.473017,387.076494 C161.383049,384.930677 162.240821,382.30757 164.388043,381.220717 L179.983536,375 L183.930883,382.767331" id="Fill-118" fill="#F7D69F"></path>
                <path d="M180.152054,385.03506 L158.00079,393.870916 C154.94792,395.418327 151.220003,394.200797 149.672023,391.152988 C148.124044,388.10757 149.340883,384.383267 152.392158,382.839044 L174.546614,374 L180.152054,385.03506" id="Fill-119" fill="#4A959A"></path>
                <path d="M179.547107,373.101633 C177.943273,377.221155 179.98517,381.859402 184.109657,383.460199 C188.233346,385.064183 192.878082,383.023545 194.482714,378.90482 C196.087346,374.786095 194.044651,370.147848 189.920164,368.546255 C185.796475,366.944661 181.15174,368.984502 179.547107,373.101633" id="Fill-120" fill="#F7D69F"></path>
                <path d="M90.6784909,390.820635 C87.5418381,392.187965 83.890522,390.757686 82.5196826,387.626212 C81.1496412,384.494738 82.581921,380.848523 85.7177759,379.480396 L107.264211,369.680396 C110.399268,368.313065 116.782688,368.953702 118.152729,372.083583 C119.521175,375.216651 121.84474,380.283583 118.708885,381.650914 L90.6784909,390.820635" id="Fill-121" fill="#53A7AA"></path>
                <path d="M68.0022073,364 L80.842456,374.807968 C82.8157306,376.188048 83.294487,378.904382 81.9132746,380.873307 C80.5312642,382.843825 77.8119275,383.322709 75.8402487,381.943426 L63,371.136255 L68.0022073,364" id="Fill-122" fill="#F7D69F"></path>
                <path d="M72.1079378,365 L90.3461658,380.351394 C93.1508808,382.313147 93.830715,386.169721 91.8678135,388.969721 C89.9057098,391.767331 86.0421451,392.447809 83.2406218,390.488446 L65,375.134661 L72.1079378,365" id="Fill-123" fill="#53A7AA"></path>
                <path d="M53.8166963,367.51959 C55.7620435,371.489311 60.5615772,373.133932 64.5360539,371.191303 C68.5113285,369.250267 70.1574528,364.457438 68.2121057,360.48692 C66.2675564,356.517996 61.4688207,354.874171 57.4935461,356.815207 C53.5190694,358.757837 51.8721471,363.549868 53.8166963,367.51959" id="Fill-124" fill="#F7D69F"></path>
                <path d="M95.239737,431.926954 C94.2997785,435.212213 96.207623,438.636118 99.49668,439.57556 C102.786535,440.512612 106.214431,438.61062 107.15439,435.325361 L114.429892,409.88791 C115.370649,406.601855 113.4644,403.178747 110.174545,402.239305 C106.883892,401.301456 103.455198,403.203448 102.516038,406.488707 L95.239737,431.926954" id="Fill-125" fill="#235A71"></path>
                <path d="M82.0006114,455.728404 L94.8432539,444.92442 C96.8173264,443.545137 97.2976788,440.830396 95.9172642,438.859081 C94.5368497,436.888563 91.8151192,436.408085 89.8426425,437.786571 L77,448.591352 L82.0006114,455.728404" id="Fill-126" fill="#F7D69F"></path>
                <path d="M86.1039482,453.603184 L104.34856,438.257367 C107.152477,436.298005 107.834705,432.440634 105.872601,429.640634 C103.911295,426.842228 100.047731,426.158562 97.2454093,428.117925 L79,443.465335 L86.1039482,453.603184" id="Fill-127" fill="#235A71"></path>
                <path d="M77.8596914,461.210548 C79.0845101,463.637639 80.6221163,465.330866 83.0526033,464.108556 C85.4830904,462.884651 84.112251,455.271105 82.8882303,452.844014 L80.3715671,448.707759 C79.1467484,446.27987 76.1832458,445.304572 73.7519609,446.527679 C71.3222717,447.74999 71.7691111,449.992221 72.9939298,452.419313 L77.8596914,461.210548" id="Fill-128" fill="#2C2D2B"></path>
                <path d="M119.584038,441.771972 C119.658245,445.187909 122.493281,447.895478 125.914794,447.822172 C129.335509,447.745678 132.046867,444.915399 131.971861,441.499462 L131.389374,415.050857 C131.313571,411.634921 128.480131,408.928148 125.059416,409.001455 C121.638701,409.078745 118.925747,411.906634 119.001551,415.323367 L119.584038,441.771972" id="Fill-129" fill="#1A4759"></path>
                <path d="M123.240995,472.054749 L127.305637,455.784629 C128.097181,453.512119 126.892311,451.030844 124.616622,450.242 C122.340933,449.453155 119.855389,450.656342 119.066238,452.928056 L115,469.198175 L123.240995,472.054749" id="Fill-130" fill="#F7D69F"></path>
                <path d="M125.706394,467.328751 L131.480197,444.2164 C132.603679,440.987715 130.892124,437.463412 127.658922,436.34389 C124.427316,435.223572 120.895689,436.930345 119.775399,440.15903 L114,463.272974 L125.706394,467.328751" id="Fill-131" fill="#1A4759"></path>
                <path d="M123.372098,478.151639 C125.788222,479.402635 128.028005,479.875145 129.278357,477.460005 C130.531103,475.047256 124.951196,469.680722 122.534274,468.430523 L118.067476,466.552435 C115.649756,465.302236 112.67588,466.245662 111.425528,468.659208 C110.17358,471.071957 111.852419,472.627336 114.269341,473.876738 L123.372098,478.151639" id="Fill-132" fill="#2C2D2B"></path>
                <path d="M100,404.676699 C103.151813,411.065543 109.300642,412.560364 119.09999,413.179488 C128.899337,413.798611 129.438736,412.904587 135.488622,406.918133 L137.331036,381.04881 C137.951026,371.263153 129.863233,368.73885 120.063886,368.119727 C110.263741,367.5014 102.462404,369.020922 101.842415,378.807376 L100,404.676699" id="Fill-133" fill="#53A7AA"></path>
                <path d="M113.010208,371.209395 C112.810727,374.795849 115.558789,377.864375 119.149462,378.062781 C122.740136,378.263578 125.812954,375.517761 126.012436,371.932901 L126.796001,357.863578 C126.996281,354.278717 124.247421,351.209395 120.656747,351.010191 C117.066872,350.810988 113.994053,353.556008 113.794571,357.141665 L113.010208,371.209395" id="Fill-134" fill="#F7D69F"></path>
                <path d="M99.7289648,348.574927 C106.17941,362.10162 112.924291,368.749429 126.850519,367.880106 C140.778343,367.009987 145.953701,356.119947 145.083162,342.21158 L144.167141,327.583692 C143.295804,313.675325 131.812032,311.288871 117.884208,312.158194 C103.956384,313.028313 96.194944,324.831501 97.0662808,338.740664 L99.7289648,348.574927" id="Fill-135" fill="#F7D69F"></path>
                <path d="M103.390015,318 C106.927228,322.138645 109.198927,327.415936 109.565176,333.263745 C110.188357,343.213546 110.695839,351.856574 102.749279,356.741036 C102.135673,355.807968 97.8659633,350.498008 97.2850721,342.414343 L97.1342638,338.809562 C96.6108234,330.451793 97.4039633,322.971315 103.390015,318" id="Fill-136" fill="#2C2D2B"></path>
                <path d="M118.909482,310.327582 C128.35824,308.605374 144.028862,307.568117 150.76956,313.693615 C157.510257,319.819113 149.208383,328.112443 140.255637,328.646307 C126.402819,329.476586 109.417337,328.671009 101,321.160252 C105.124487,315.653479 111.664147,311.648177 118.909482,310.327582 Z" id="Fill-142" fill="#2C2D2B"></path>
                <path d="M135.517448,407.241434 C134.898256,417.027888 128.465365,420.03745 118.666018,419.418327 C108.866671,418.8 99.4096345,414.787251 100.028826,405 L135.517448,407.241434" id="Fill-144" fill="#235A71"></path>
                <path d="M45.0186495,255.519398 L63.8736755,314.47637 C63.9407014,314.685932 64.1657169,314.802266 64.3755718,314.735334 C64.5854268,314.668402 64.7011262,314.443701 64.6341003,314.234139 L45.7790744,255.277167 C45.7120485,255.067605 45.4878309,254.952067 45.277976,255.018999 C45.0681211,255.085932 44.9524216,255.309836 45.0186495,255.519398" id="Fill-145" fill="#144449"></path>
                <path d="M42,0.398406375 L42,222.888446 C42,223.108367 42.1784861,223.286853 42.3984064,223.286853 C42.6183267,223.286853 42.7968127,223.108367 42.7968127,222.888446 L42.7968127,0.398406375 C42.7968127,0.178486056 42.6183267,0 42.3984064,0 C42.1784861,0 42,0.178486056 42,0.398406375" id="Fill-146" fill="#144449"></path>
                <path d="M47.0101969,214.642231 C47.0101969,217.126693 44.9922383,219.140239 42.5050984,219.140239 C40.0171606,219.140239 38,217.126693 38,214.642231 L38,204.498008 C38,202.013546 40.0171606,200 42.5050984,200 C44.9922383,200 47.0101969,202.013546 47.0101969,204.498008 L47.0101969,214.642231" id="Fill-147" fill="#1B6190"></path>
                <path d="M59.4559171,237.716335 C56.7748808,237.716335 54.6021244,239.886853 54.6021244,242.564143 C54.6021244,249.428685 49.029399,254.993625 42.1552539,254.993625 C35.2811088,254.993625 29.7083834,249.428685 29.7083834,242.564143 C29.7083834,235.733865 35.2276477,230.194422 42.055513,230.140239 L42.1408912,230.144223 C45.223285,230.144223 47.7231917,227.648606 47.7231917,224.569721 L47.7231917,212 L36.5577927,212 L36.5577927,221.153785 C27.0321347,223.630279 20,232.276494 20,242.564143 C20,254.78247 29.9198342,264.688446 42.1552539,264.688446 C54.3914715,264.688446 64.3105078,254.78247 64.3105078,242.564143 C64.3105078,239.886853 62.1369534,237.716335 59.4559171,237.716335" id="Fill-148" fill="#FFFFFF"></path>
                <polyline id="Fill-149" fill="#F5A623" points="69.1946736 366.133068 1.42108547e-14 344.847809 15.0688601 296 84.2635337 317.286056 69.1946736 366.133068"></polyline>
                <path d="M41.7202434,255.269555 L10.0217771,347.842464 C9.94996363,348.050432 10.0616735,348.276727 10.2699325,348.347643 C10.4789895,348.419356 10.7056009,348.307802 10.7766165,348.099834 L42.4750828,255.526926 C42.5468963,255.318958 42.4351864,255.092663 42.2269274,255.021747 C42.0178704,254.950034 41.791259,255.061587 41.7202434,255.269555" id="Fill-156" fill="#144449"></path>
                <polyline id="Fill-173" fill="#1592CE" points="263.424902 409.564143 184 376.879681 218.201565 294 297.625668 326.683665 263.424902 409.564143"></polyline>
            </g>
        </g>
    </g>
</svg>