<?xml version="1.0" encoding="UTF-8"?>
<svg width="417px" height="392px" viewBox="0 0 417 392" version="1.1" xmlns="http://www.w3.org/2000/svg" xmlns:xlink="http://www.w3.org/1999/xlink">
    <!-- Generator: Sketch 52.5 (67469) - http://www.bohemiancoding.com/sketch -->
    <title>PC</title>
    <desc>Created with Sketch.</desc>
    <g id="Page-3" stroke="none" stroke-width="1" fill="none" fill-rule="evenodd">
        <g id="PC">
            <path d="M416.823834,293.689243 C416.823834,298.088446 413.250715,301.657371 408.84456,301.657371 L50.5751295,301.657371 C46.1681762,301.657371 42.5958549,298.088446 42.5958549,293.689243 L42.5958549,7.96812749 C42.5958549,3.56733068 46.1681762,0 50.5751295,0 L408.84456,0 C413.250715,0 416.823834,3.56733068 416.823834,7.96812749 L416.823834,293.689243" id="Fill-6" fill="#206998"></path>
            <polygon id="Fill-9" fill="#8CBDD4" points="42.5958549 91.6334661 416.823834 91.6334661 416.823834 16.7330677 42.5958549 16.7330677"></polygon>
            <polygon id="Fill-14" fill="#FFFFFE" points="68.5284974 67.7290837 390.891192 67.7290837 390.891192 40.6374502 68.5284974 40.6374502"></polygon>
            <polyline id="Fill-15" fill="#1E4F63" points="366.753088 67.9673307 68.5284974 67.9673307 68.5284974 67.7290837 366.720373 67.7290837 366.753088 67.9673307"></polyline>
            <polygon id="Fill-17" fill="#FFFFFE" points="68.5284974 199.952988 224.542466 199.952988 224.542466 110.311554 68.5284974 110.311554"></polygon>
            <path d="M212.573554,200.351394 L216.563192,200.351394 L216.563192,199.554582 L212.573554,199.554582 L212.573554,200.351394 Z M204.59428,200.351394 L208.583917,200.351394 L208.583917,199.554582 L204.59428,199.554582 L204.59428,200.351394 Z M196.615005,200.351394 L200.604642,200.351394 L200.604642,199.554582 L196.615005,199.554582 L196.615005,200.351394 Z M188.635731,200.351394 L192.625368,200.351394 L192.625368,199.554582 L188.635731,199.554582 L188.635731,200.351394 Z M180.656456,200.351394 L184.646093,200.351394 L184.646093,199.554582 L180.656456,199.554582 L180.656456,200.351394 Z M172.677181,200.351394 L176.666819,200.351394 L176.666819,199.554582 L172.677181,199.554582 L172.677181,200.351394 Z M164.697907,200.351394 L168.687544,200.351394 L168.687544,199.554582 L164.697907,199.554582 L164.697907,200.351394 Z M156.718632,200.351394 L160.708269,200.351394 L160.708269,199.554582 L156.718632,199.554582 L156.718632,200.351394 Z M148.739358,200.351394 L152.728995,200.351394 L152.728995,199.554582 L148.739358,199.554582 L148.739358,200.351394 Z M140.760083,200.351394 L144.74972,200.351394 L144.74972,199.554582 L140.760083,199.554582 L140.760083,200.351394 Z M132.780808,200.351394 L136.770446,200.351394 L136.770446,199.554582 L132.780808,199.554582 L132.780808,200.351394 Z M124.801534,200.351394 L128.791171,200.351394 L128.791171,199.554582 L124.801534,199.554582 L124.801534,200.351394 Z M116.822259,200.351394 L120.811896,200.351394 L120.811896,199.554582 L116.822259,199.554582 L116.822259,200.351394 Z M108.842984,200.351394 L112.832622,200.351394 L112.832622,199.554582 L108.842984,199.554582 L108.842984,200.351394 Z M100.86371,200.351394 L104.853347,200.351394 L104.853347,199.554582 L100.86371,199.554582 L100.86371,200.351394 Z M92.8844352,200.351394 L96.8740725,200.351394 L96.8740725,199.554582 L92.8844352,199.554582 L92.8844352,200.351394 Z M84.9051606,200.351394 L88.8947979,200.351394 L88.8947979,199.554582 L84.9051606,199.554582 L84.9051606,200.351394 Z M76.925886,200.351394 L80.9155233,200.351394 L80.9155233,199.554582 L76.925886,199.554582 L76.925886,200.351394 Z M68.9466114,200.351394 L72.9362487,200.351394 L72.9362487,199.554582 L68.9466114,199.554582 L68.9466114,200.351394 Z M68.1295337,196.386454 L68.9274611,196.386454 L68.9274611,192.40239 L68.1295337,192.40239 L68.1295337,196.386454 Z M68.1295337,188.418327 L68.9274611,188.418327 L68.9274611,184.434263 L68.1295337,184.434263 L68.1295337,188.418327 Z M68.1295337,180.450199 L68.9274611,180.450199 L68.9274611,176.466135 L68.1295337,176.466135 L68.1295337,180.450199 Z M68.1295337,172.482072 L68.9274611,172.482072 L68.9274611,168.498008 L68.1295337,168.498008 L68.1295337,172.482072 Z M68.1295337,164.513944 L68.9274611,164.513944 L68.9274611,160.52988 L68.1295337,160.52988 L68.1295337,164.513944 Z M68.1295337,156.545817 L68.9274611,156.545817 L68.9274611,152.561753 L68.1295337,152.561753 L68.1295337,156.545817 Z M68.1295337,148.577689 L68.9274611,148.577689 L68.9274611,144.593625 L68.1295337,144.593625 L68.1295337,148.577689 Z M68.1295337,140.609562 L68.9274611,140.609562 L68.9274611,136.625498 L68.1295337,136.625498 L68.1295337,140.609562 Z M68.1295337,132.641434 L68.9274611,132.641434 L68.9274611,128.657371 L68.1295337,128.657371 L68.1295337,132.641434 Z M68.1295337,124.673307 L68.9274611,124.673307 L68.9274611,120.689243 L68.1295337,120.689243 L68.1295337,124.673307 Z M68.1295337,116.705179 L68.9274611,116.705179 L68.9274611,112.721116 L68.1295337,112.721116 L68.1295337,116.705179 Z M70.1052021,110.70996 L74.0940415,110.70996 L74.0940415,109.913147 L70.1052021,109.913147 L70.1052021,110.70996 Z M78.0844767,110.70996 L82.0733161,110.70996 L82.0733161,109.913147 L78.0844767,109.913147 L78.0844767,110.70996 Z M86.0637513,110.70996 L90.0525907,110.70996 L90.0525907,109.913147 L86.0637513,109.913147 L86.0637513,110.70996 Z M94.0430259,110.70996 L98.0318653,110.70996 L98.0318653,109.913147 L94.0430259,109.913147 L94.0430259,110.70996 Z M102.022301,110.70996 L106.01114,110.70996 L106.01114,109.913147 L102.022301,109.913147 L102.022301,110.70996 Z M110.001575,110.70996 L113.990415,110.70996 L113.990415,109.913147 L110.001575,109.913147 L110.001575,110.70996 Z M117.980052,110.70996 L121.969689,110.70996 L121.969689,109.913147 L117.980052,109.913147 L117.980052,110.70996 Z M125.959326,110.70996 L129.948964,110.70996 L129.948964,109.913147 L125.959326,109.913147 L125.959326,110.70996 Z M133.938601,110.70996 L137.928238,110.70996 L137.928238,109.913147 L133.938601,109.913147 L133.938601,110.70996 Z M141.917876,110.70996 L145.907513,110.70996 L145.907513,109.913147 L141.917876,109.913147 L141.917876,110.70996 Z M149.89715,110.70996 L153.886788,110.70996 L153.886788,109.913147 L149.89715,109.913147 L149.89715,110.70996 Z M157.876425,110.70996 L161.866062,110.70996 L161.866062,109.913147 L157.876425,109.913147 L157.876425,110.70996 Z M165.855699,110.70996 L169.845337,110.70996 L169.845337,109.913147 L165.855699,109.913147 L165.855699,110.70996 Z M173.834974,110.70996 L177.824611,110.70996 L177.824611,109.913147 L173.834974,109.913147 L173.834974,110.70996 Z M181.814249,110.70996 L185.803886,110.70996 L185.803886,109.913147 L181.814249,109.913147 L181.814249,110.70996 Z M189.793523,110.70996 L193.783161,110.70996 L193.783161,109.913147 L189.793523,109.913147 L189.793523,110.70996 Z M197.772798,110.70996 L201.762435,110.70996 L201.762435,109.913147 L197.772798,109.913147 L197.772798,110.70996 Z M205.752073,110.70996 L209.74171,110.70996 L209.74171,109.913147 L205.752073,109.913147 L205.752073,110.70996 Z M213.731347,110.70996 L217.720984,110.70996 L217.720984,109.913147 L213.731347,109.913147 L213.731347,110.70996 Z M221.710622,110.70996 L224.143503,110.70996 L224.143503,111.467729 L224.94143,111.467729 L224.94143,109.913147 L221.710622,109.913147 L221.710622,110.70996 L221.710622,110.70996 Z M224.143503,119.435857 L224.94143,119.435857 L224.94143,115.451793 L224.143503,115.451793 L224.143503,119.435857 Z M224.143503,127.403984 L224.94143,127.403984 L224.94143,123.41992 L224.143503,123.41992 L224.143503,127.403984 Z M224.143503,135.372112 L224.94143,135.372112 L224.94143,131.388048 L224.143503,131.388048 L224.143503,135.372112 Z M224.143503,143.340239 L224.94143,143.340239 L224.94143,139.356175 L224.143503,139.356175 L224.143503,143.340239 Z M224.143503,151.308367 L224.94143,151.308367 L224.94143,147.324303 L224.143503,147.324303 L224.143503,151.308367 Z M224.143503,159.276494 L224.94143,159.276494 L224.94143,155.29243 L224.143503,155.29243 L224.143503,159.276494 Z M224.143503,167.244622 L224.94143,167.244622 L224.94143,163.260558 L224.143503,163.260558 L224.143503,167.244622 Z M224.143503,175.212749 L224.94143,175.212749 L224.94143,171.228685 L224.143503,171.228685 L224.143503,175.212749 Z M224.143503,183.180876 L224.94143,183.180876 L224.94143,179.196813 L224.143503,179.196813 L224.143503,183.180876 Z M224.143503,191.149004 L224.94143,191.149004 L224.94143,187.16494 L224.143503,187.16494 L224.143503,191.149004 Z M224.143503,199.117131 L224.94143,199.117131 L224.94143,195.133068 L224.143503,195.133068 L224.143503,199.117131 Z M220.552829,200.351394 L224.542466,200.351394 L224.542466,199.554582 L220.552829,199.554582 L220.552829,200.351394 Z" id="Fill-18" fill="#235A71"></path>
            <polygon id="Fill-19" fill="#22B3FF" points="68.5284974 199.952988 138.639192 199.952988 138.639192 110.311554 68.5284974 110.311554"></polygon>
            <polygon id="Fill-20" fill="#F5A623" points="318.488052 161.424701 390.891192 161.424701 390.891192 110.311554 318.488052 110.311554"></polygon>
            <polygon id="Fill-21" fill="#FFFFFE" points="236.064539 161.424701 308.467679 161.424701 308.467679 110.311554 236.064539 110.311554"></polygon>
            <path d="M296.498767,161.823108 L300.488404,161.823108 L300.488404,161.026295 L296.498767,161.026295 L296.498767,161.823108 Z M288.519492,161.823108 L292.50913,161.823108 L292.50913,161.026295 L288.519492,161.026295 L288.519492,161.823108 Z M280.540218,161.823108 L284.529855,161.823108 L284.529855,161.026295 L280.540218,161.026295 L280.540218,161.823108 Z M272.560943,161.823108 L276.55058,161.823108 L276.55058,161.026295 L272.560943,161.026295 L272.560943,161.823108 Z M264.581668,161.823108 L268.571306,161.823108 L268.571306,161.026295 L264.581668,161.026295 L264.581668,161.823108 Z M256.602394,161.823108 L260.592031,161.823108 L260.592031,161.026295 L256.602394,161.026295 L256.602394,161.823108 Z M248.623119,161.823108 L252.612756,161.823108 L252.612756,161.026295 L248.623119,161.026295 L248.623119,161.823108 Z M240.643845,161.823108 L244.633482,161.823108 L244.633482,161.026295 L240.643845,161.026295 L240.643845,161.823108 Z M236.654207,161.025498 L236.463503,161.025498 L236.463503,158.029482 L235.665575,158.029482 L235.665575,161.823108 L236.654207,161.823108 L236.654207,161.026295 L236.654207,161.025498 Z M235.665575,154.045418 L236.463503,154.045418 L236.463503,150.061355 L235.665575,150.061355 L235.665575,154.045418 Z M235.665575,146.077291 L236.463503,146.077291 L236.463503,142.093227 L235.665575,142.093227 L235.665575,146.077291 Z M235.665575,138.109163 L236.463503,138.109163 L236.463503,134.1251 L235.665575,134.1251 L235.665575,138.109163 Z M235.665575,130.141036 L236.463503,130.141036 L236.463503,126.156972 L235.665575,126.156972 L235.665575,130.141036 Z M235.665575,122.172908 L236.463503,122.172908 L236.463503,118.188845 L235.665575,118.188845 L235.665575,122.172908 Z M236.463503,114.204781 L236.463503,110.311554 L236.064539,110.311554 L236.064539,110.70996 L236.155503,110.70996 L236.155503,109.913147 L235.665575,109.913147 L235.665575,114.204781 L236.463503,114.204781 L236.463503,114.204781 Z M240.14514,110.70996 L244.134777,110.70996 L244.134777,109.913147 L240.14514,109.913147 L240.14514,110.70996 Z M248.124415,110.70996 L252.114052,110.70996 L252.114052,109.913147 L248.124415,109.913147 L248.124415,110.70996 Z M256.103689,110.70996 L260.093326,110.70996 L260.093326,109.913147 L256.103689,109.913147 L256.103689,110.70996 Z M264.082964,110.70996 L268.072601,110.70996 L268.072601,109.913147 L264.082964,109.913147 L264.082964,110.70996 Z M272.062238,110.70996 L276.051876,110.70996 L276.051876,109.913147 L272.062238,109.913147 L272.062238,110.70996 Z M280.041513,110.70996 L284.03115,110.70996 L284.03115,109.913147 L280.041513,109.913147 L280.041513,110.70996 Z M288.020788,110.70996 L292.010425,110.70996 L292.010425,109.913147 L288.020788,109.913147 L288.020788,110.70996 Z M296.000062,110.70996 L299.989699,110.70996 L299.989699,109.913147 L296.000062,109.913147 L296.000062,110.70996 Z M303.979337,110.70996 L307.968974,110.70996 L307.968974,109.913147 L303.979337,109.913147 L303.979337,110.70996 Z M308.068715,117.781673 L308.866642,117.781673 L308.866642,113.79761 L308.068715,113.79761 L308.068715,117.781673 Z M308.068715,125.749801 L308.866642,125.749801 L308.866642,121.765737 L308.068715,121.765737 L308.068715,125.749801 Z M308.068715,133.717928 L308.866642,133.717928 L308.866642,129.733865 L308.068715,129.733865 L308.068715,133.717928 Z M308.068715,141.686056 L308.866642,141.686056 L308.866642,137.701992 L308.068715,137.701992 L308.068715,141.686056 Z M308.068715,149.654183 L308.866642,149.654183 L308.866642,145.67012 L308.068715,145.67012 L308.068715,149.654183 Z M308.068715,157.622311 L308.866642,157.622311 L308.866642,153.638247 L308.068715,153.638247 L308.068715,157.622311 Z M304.478041,161.823108 L308.467679,161.823108 L308.467679,161.026295 L304.478041,161.026295 L304.478041,161.823108 Z" id="Fill-22" fill="#235A71"></path>
            <polygon id="Fill-23" fill="#F5A623" points="236.064539 199.952988 390.891192 199.952988 390.891192 169.985657 236.064539 169.985657"></polygon>
            <polygon id="Fill-24" fill="#FFFFFE" points="68.4582798 239.062151 169.746394 239.062151 169.746394 228.188845 68.4582798 228.188845"></polygon>
            <polygon id="Fill-26" fill="#FFFFFE" points="179.03028 239.062151 280.319192 239.062151 280.319192 228.188845 179.03028 228.188845"></polygon>
            <polygon id="Fill-27" fill="#FFFFFE" points="289.603078 239.062151 390.891192 239.062151 390.891192 228.188845 289.603078 228.188845"></polygon>
            <polygon id="Fill-28" fill="#FFFFFE" points="68.4582798 258.584064 169.746394 258.584064 169.746394 247.710757 68.4582798 247.710757"></polygon>
            <polygon id="Fill-29" fill="#FFFFFE" points="68.4582798 284.671713 390.891192 284.671713 390.891192 266.483665 68.4582798 266.483665"></polygon>
            <polygon id="Fill-30" fill="#FFFFFE" points="179.03028 258.584064 280.319192 258.584064 280.319192 247.710757 179.03028 247.710757"></polygon>
            <polygon id="Fill-32" fill="#FFFFFE" points="289.60228 258.584064 390.891192 258.584064 390.891192 247.710757 289.60228 247.710757"></polygon>
            <polyline id="Fill-37" fill="#235A71" points="363.363492 65.7370518 363.363492 68.12749 365.757275 68.12749 365.757275 67.3306773 364.16142 67.3306773 364.16142 65.7370518 363.363492 65.7370518"></polyline>
            <path d="M370.385254,68.12749 L375.013233,68.12749 L375.013233,67.3306773 L370.385254,67.3306773 L370.385254,68.12749 Z M379.640415,68.12749 L384.268394,68.12749 L384.268394,67.3306773 L379.640415,67.3306773 L379.640415,68.12749 Z" id="Fill-38" fill="#235A71"></path>
            <polyline id="Fill-39" fill="#235A71" points="388.896373 68.1266932 391.290155 68.1266932 391.290155 65.7370518 390.492228 65.7370518 390.492228 67.3298805 388.896373 67.3306773 388.896373 68.12749 388.896373 68.1266932"></polyline>
            <path d="M390.492228,61.1155378 L391.289041,61.1155378 L391.289041,56.4940239 L390.492228,56.4940239 L390.492228,61.1155378 Z M390.492228,51.87251 L391.289041,51.87251 L391.289041,47.250996 L390.492228,47.250996 L390.492228,51.87251 Z" id="Fill-40" fill="#235A71"></path>
            <polyline id="Fill-41" fill="#235A71" points="391.290155 42.6294821 391.290155 40.2390438 388.896373 40.2390438 388.896373 41.0358566 390.492228 41.0358566 390.492228 42.6294821 391.290155 42.6294821"></polyline>
            <path d="M379.640415,41.0358566 L384.268394,41.0358566 L384.268394,40.2390438 L379.640415,40.2390438 L379.640415,41.0358566 Z M370.385254,41.0358566 L375.013233,41.0358566 L375.013233,40.2390438 L370.385254,40.2390438 L370.385254,41.0358566 Z" id="Fill-42" fill="#235A71"></path>
            <polyline id="Fill-43" fill="#235A71" points="365.757275 40.2390438 363.363492 40.2390438 363.363492 42.6294821 364.16142 42.6294821 364.16142 41.0358566 365.757275 41.0358566 365.757275 40.2390438"></polyline>
            <path d="M363.363492,51.8717131 L364.160305,51.8717131 L364.160305,47.2501992 L363.363492,47.2501992 L363.363492,51.8717131 Z M363.363492,61.114741 L364.160305,61.114741 L364.160305,56.4932271 L363.363492,56.4932271 L363.363492,61.114741 Z" id="Fill-44" fill="#235A71"></path>
            <path d="M51.3698653,271.884462 C50.4825699,271.884462 49.4875544,271.54741 48.4518446,271.045418 L53.3678756,271.045418 C52.8069326,271.639841 52.1270984,271.884462 51.3698653,271.884462" id="Fill-50" fill="#458384"></path>
            <path d="M42.5958549,211.482869 C42.0612435,211.43745 41.5298238,211.379283 41,211.314741 L41,103.615936 C41.5274301,103.473307 42.0588497,103.341036 42.5958549,103.225498 L42.5958549,211.482869" id="Fill-51" fill="#BDBEBA"></path>
            <polyline id="Fill-52" fill="#9D9F9C" points="42.5958549 259.049402 41 259.049402 41 256.714741 41.0015959 256.708367 41 256.70757 41 248.269323 42.5958549 241.882072 42.5958549 259.049402"></polyline>
            <path d="M68.1295337,180.450199 L68.5284974,180.450199 L68.5284974,176.466135 L68.1295337,176.466135 L68.1295337,180.450199 Z M68.5284974,172.482072 L68.1295337,172.482072 L68.1295337,168.973705 L68.5284974,169.16255 L68.5284974,172.482072 L68.5284974,172.482072 Z M68.1295337,148.577689 L68.5284974,148.577689 L68.5284974,144.593625 L68.1295337,144.593625 L68.1295337,148.577689 Z M68.1295337,140.609562 L68.5284974,140.609562 L68.5284974,136.625498 L68.1295337,136.625498 L68.1295337,140.609562 Z M68.1295337,132.641434 L68.5284974,132.641434 L68.5284974,128.657371 L68.1295337,128.657371 L68.1295337,132.641434 Z M68.1295337,124.673307 L68.5284974,124.673307 L68.5284974,120.689243 L68.1295337,120.689243 L68.1295337,124.673307 Z M68.1295337,116.705179 L68.5284974,116.705179 L68.5284974,112.721116 L68.1295337,112.721116 L68.1295337,116.705179 Z M73.3104767,110.311554 L70.1052021,110.311554 L70.1052021,109.913147 L73.2785596,109.913147 C73.2905285,110.047012 73.3009016,110.179283 73.3104767,110.311554 L73.3104767,110.311554 Z" id="Fill-56" fill="#1A4556"></path>
            <path d="M183.797896,201.388048 L181.279637,200.351394 L184.225585,200.351394 L183.797896,201.388048 M180.656456,200.094821 L180.311751,199.952988 L180.656456,199.952988 L180.656456,200.094821" id="Fill-58" fill="#6CA6B7"></path>
            <polygon id="Fill-114" fill="#8CBDD4" points="1 324.756972 71.1098964 324.756972 71.1098964 276 1 276"></polygon>
            <polyline id="Fill-115" fill="#D7E9F2" points="63.4513886 264 11.439285 264 1 275.996016 71.1098964 275.996016 63.4513886 264"></polyline>
            <polyline id="Fill-194" fill="#1B6190" points="280.874383 383.229482 182 383.229482 198.224259 339 264.649326 339 280.874383 383.229482"></polyline>
            <polyline id="Fill-198" fill="#1B6190" points="113.206756 361.152988 0 361.152988 7.69760622 349 120.905161 349 113.206756 361.152988"></polyline>
            <polyline id="Fill-199" fill="#8CBDD4" points="162.40857 341.599203 73 341.599203 79.0794093 332 168.487181 332 162.40857 341.599203"></polyline>
            <polyline id="Fill-200" fill="#F5A623" points="148.433005 387.847012 21 391.79761 25.9686943 377.951394 153.400902 374 148.433005 387.847012"></polyline>
            <polyline id="Fill-205" fill="#22B3FF" points="384.620611 313.697211 302.888902 320.603984 298 262.905179 379.73171 256 384.620611 313.697211"></polyline>
        </g>
    </g>
</svg>