<?xml version="1.0" encoding="UTF-8"?>
<svg width="174px" height="349px" viewBox="0 0 174 349" version="1.1" xmlns="http://www.w3.org/2000/svg" xmlns:xlink="http://www.w3.org/1999/xlink">
    <!-- Generator: Sketch 52.5 (67469) - http://www.bohemiancoding.com/sketch -->
    <title>SecondPerson</title>
    <desc>Created with Sketch.</desc>
    <g id="Page-3" stroke="none" stroke-width="1" fill="none" fill-rule="evenodd">
        <g id="Group" transform="translate(-442.000000, -59.000000)">
            <g id="SecondPerson" transform="translate(442.000000, 59.000000)">
                <path d="M121.606545,193.276748 L96.0194047,272.679139 C95.9515809,272.8887 96.0672804,273.112605 96.2771353,273.180334 C96.4869902,273.247266 96.7112078,273.132525 96.7790317,272.922963 L122.366172,193.520573 C122.433995,193.311011 122.318296,193.087107 122.108441,193.019378 C121.899384,192.951649 121.674368,193.067186 121.606545,193.276748" id="Fill-67" fill="#144449"></path>
                <polyline id="Fill-73" fill="#1A4556" points="20.0039841 279.000797 20 279.000797 20.0039841 279 20.0039841 279.000797"></polyline>
                <polyline id="Fill-75" fill="#1A4556" points="0.256573705 259.87012 -5.51225732e-14 258 0.256573705 258 0.256573705 259.87012"></polyline>
                <path d="M27.1195219,278.10757 C27.0796813,278.077291 27.0390438,278.047012 27,278.015936 L27.1195219,278 L27.1195219,278.10757" id="Fill-77" fill="#133441"></path>
                <polyline id="Fill-78" fill="#1592CE" points="5.6872228 281.494024 32.535886 277.811952 28.8486632 251 2 254.682072 5.6872228 281.494024"></polyline>
                <path d="M56.6391509,286.902301 C53.5208504,288.314254 52.1420317,291.981186 53.5543633,295.093536 C54.9682908,298.20509 58.639555,299.583576 61.7562597,298.172421 L85.8831923,287.245728 C88.9990991,285.834572 90.3787156,282.168437 88.966384,279.056883 C87.5524566,275.945329 85.3374099,270.829791 82.2207053,272.240947 L56.6391509,286.902301" id="Fill-82" fill="#53A7AA"></path>
                <path d="M35,275.810359 L47.2745181,287.253386 C48.882342,289.046215 51.6399793,289.198406 53.4337202,287.593625 C55.2282591,285.988845 55.3814611,283.23506 53.7744352,281.443825 L41.4983212,270 L35,275.810359" id="Fill-83" fill="#F7D69F"></path>
                <path d="M37,280.254183 L54.4363109,296.509163 C56.7191813,299.056574 59.8015751,299.326693 63.1847876,296.992032 C65.7333679,294.713147 65.952,290.801594 63.6683316,288.256574 L46.2304249,272 L37,280.254183" id="Fill-84" fill="#53A7AA"></path>
                <path d="M42.0255751,269.001594 C42.0255751,273.420717 38.4380933,277.003187 34.0127876,277.003187 C29.5874819,277.003187 26,273.420717 26,269.001594 C26,264.58247 29.5874819,261 34.0127876,261 C38.4380933,261 42.0255751,264.58247 42.0255751,269.001594" id="Fill-85" fill="#F7D69F"></path>
                <path d="M124.929837,274.369153 C128.348957,274.221743 131.00047,271.334093 130.853651,267.919751 C130.706034,264.507002 127.815143,261.859193 124.396024,262.005806 L97.9279722,263.147639 C94.5104489,263.295049 91.8597338,266.181902 92.0057546,269.594651 C92.154967,273.008994 92.297796,278.580308 95.7161173,278.432101 L124.929837,274.369153" id="Fill-86" fill="#53A7AA"></path>
                <path d="M113,242.450996 L117.267316,258.669323 C117.668674,261.042231 119.920425,262.640637 122.293461,262.239044 C124.668891,261.83745 126.269534,259.590438 125.867378,257.21992 L121.60086,241 L113,242.450996" id="Fill-87" fill="#F7D69F"></path>
                <path d="M112,247.062151 L118.059461,270.100398 C118.630777,273.471713 121.382031,275.095618 124.756466,274.5251 L125.384435,274.939442 C128.757275,274.369721 130.848642,271.409562 130.278124,268.040637 L124.216269,245 L112,247.062151" id="Fill-88" fill="#53A7AA"></path>
                <path d="M140.528148,314.70367 C142.8182,317.243112 142.611537,321.155463 140.070138,323.441518 C137.527143,325.727574 133.610915,325.52359 131.320863,322.984945 L113.591713,303.327574 C111.301661,300.788132 111.507526,296.876578 114.048925,294.589726 C116.592718,292.30367 120.509744,292.506857 122.798998,295.046299 L140.528148,314.70367" id="Fill-89" fill="#235A71"></path>
                <path d="M165.01158,313.922709 L149.175911,319.501992 C146.984803,320.500398 144.397124,319.537849 143.395725,317.350598 C142.394326,315.16255 143.35902,312.577689 145.550129,311.579283 L161.385797,306 L165.01158,313.922709" id="Fill-90" fill="#0E2530"></path>
                <path d="M161.267027,317.254183 L138.771856,325.179283 C135.659939,326.6 131.983887,325.232669 130.561981,322.124303 C129.140074,319.016733 130.509317,315.34502 133.621235,313.925896 L156.117203,306 L161.267027,317.254183" id="Fill-91" fill="#235A71"></path>
                <path d="M123.935811,334.606198 C125.372081,337.707394 124.0172,341.383091 120.910868,342.818151 C117.804537,344.251617 114.123697,342.899426 112.687428,339.797434 L101.573096,315.783888 C100.137625,312.681896 101.491708,309.006198 104.597241,307.571936 C107.703573,306.139266 111.38521,307.490661 112.820682,310.592653 L123.935811,334.606198" id="Fill-93" fill="#1A4759"></path>
                <path d="M146.701626,340.639044 L129.922009,341.290837 C127.531418,341.600797 125.345097,339.917131 125.036299,337.531474 C124.728299,335.145817 126.41432,332.960159 128.802517,332.654183 L145.582931,332 L146.701626,340.639044" id="Fill-94" fill="#0E2530"></path>
                <path d="M142.826332,343.271713 L118.990643,344.199203 C115.596259,344.638247 112.489928,342.246215 112.051866,338.856574 C111.613006,335.468526 114.007586,332.36494 117.401171,331.928287 L141.238456,331 L142.826332,343.271713" id="Fill-95" fill="#1A4759"></path>
                <path d="M171.851374,313.560012 C173.326742,315.845271 174.00897,318.027741 171.721312,319.499454 C169.432856,320.971964 163.555322,315.932123 162.080752,313.647661 L159.785913,309.383916 C158.312141,307.099454 158.971229,304.054036 161.259685,302.581526 C163.546545,301.109812 165.255706,302.630928 166.729478,304.916187 L171.851374,313.560012" id="Fill-92" fill="#2C2D2B"></path>
                <path d="M153.47201,342.770654 C154.204507,345.388184 154.210093,347.67424 151.588103,348.40412 C148.966114,349.135594 144.84402,342.585793 144.112321,339.967467 L143.182735,335.217666 C142.451036,332.598542 143.982259,329.884598 146.604248,329.154718 C149.224642,328.423244 150.407171,330.381809 151.13887,333.000136 L153.47201,342.770654" id="Fill-96" fill="#2C2D2B"></path>
                <path d="M122.647896,291.249733 C122.628746,298.370848 117.762984,302.411486 109.23314,307.267263 C100.702497,312.123836 99.8239793,311.558099 91.7553368,308.834593 L78.7172021,286.405111 C73.8546321,277.886386 80.0090466,272.07045 88.5396891,267.214673 C97.0695337,262.358099 104.746394,260.300729 109.609762,268.820251 L122.647896,291.249733" id="Fill-97" fill="#53A7AA"></path>
                <path d="M95.0879974,266.619647 C96.8450337,269.752715 95.7263394,273.715265 92.5880907,275.469847 C89.4506399,277.224428 85.4833446,276.1065 83.7271062,272.974229 L76.8314171,260.680205 C75.0743808,257.547137 76.1930751,253.584588 79.3305259,251.830803 C82.4671788,250.075424 86.435272,251.192556 88.1923083,254.325624 L95.0879974,266.619647" id="Fill-98" fill="#F7D69F"></path>
                <path d="M98.4377797,243.801893 C96.4804637,258.656873 92.1181943,267.056873 78.602101,270.519821 C65.0844119,273.982769 56.7987331,265.217032 53.3301424,251.719024 L49.6836139,237.523805 C46.2150233,224.025 56.4021632,218.217032 69.9190544,214.754084 C83.4367435,211.291136 94.4656968,220.127789 97.9326917,233.626594 L98.4377797,243.801893" id="Fill-99" fill="#F7D69F"></path>
                <path d="M85.982513,216 C83.8975285,221.027888 83.3661088,226.745817 84.8247202,232.422311 C87.3046788,242.079681 89.491,250.456574 98.5602435,252.65498 C98.8554767,251.577689 101.276389,245.211952 99.3318394,237.344223 L98.3615596,233.867729 C96.278171,225.756972 93.2133316,218.886056 85.982513,216" id="Fill-100" fill="#2C2D2B"></path>
                <path d="M69.3487759,213 C61.4752426,213 50.0470906,213.718576 43.2939283,222.044646 C36.5407659,230.370716 46.0131996,240.212807 54.6938525,237.964202 C68.1277592,234.486114 84.0352411,228.486911 89.722868,218.749859 C84.0974794,214.783325 77.2223091,213 69.3487759,213 Z" id="Fill-106" fill="#2C2D2B"></path>
                <path d="M92,308.584861 C96.8633679,317.104382 103.96572,316.985657 112.496363,312.129084 C121.026207,307.273307 127.755927,299.518725 122.89256,291 L92,308.584861" id="Fill-108" fill="#235A71"></path>
                <path d="M125,0.398406375 L125,160.340239 C125,160.560159 125.178486,160.738645 125.398406,160.738645 C125.618327,160.738645 125.796813,160.560159 125.796813,160.340239 L125.796813,0.398406375 C125.796813,0.178486056 125.618327,2.84217094e-14 125.398406,2.84217094e-14 C125.178486,2.84217094e-14 125,0.178486056 125,0.398406375" id="Fill-109" fill="#144449"></path>
                <path d="M121,158.474104 C121,160.590438 122.717938,162.305976 124.838031,162.305976 C126.957326,162.305976 128.675264,160.590438 128.675264,158.474104 L128.675264,149.832669 C128.675264,147.715538 126.957326,146 124.838031,146 C122.717938,146 121,147.715538 121,149.832669 L121,158.474104" id="Fill-110" fill="#1B6190"></path>
                <path d="M129.641793,164.799203 L129.641793,157 L120.130497,157 L120.130497,167.708367 C120.130497,170.331474 122.259368,172.457371 124.886145,172.457371 L124.960352,172.454183 C130.775648,172.501195 135.476238,177.21992 135.476238,183.03745 C135.476238,188.885259 130.729368,193.626295 124.873378,193.626295 C119.017389,193.626295 114.270518,188.885259 114.270518,183.03745 C114.270518,180.756972 112.419326,178.908367 110.13486,178.908367 C107.851192,178.908367 106,180.756972 106,183.03745 C106,193.447012 114.450052,201.885259 124.873378,201.885259 C135.295907,201.885259 143.746756,193.447012 143.746756,183.03745 C143.746756,174.274104 137.755917,166.908367 129.641793,164.799203" id="Fill-111" fill="#FFFFFF"></path>
                <path d="M124.766571,193.32301 L101.007483,315.900699 C100.965192,316.117432 101.106426,316.326197 101.323462,316.367631 C101.5397,316.409863 101.748757,316.268827 101.790249,316.05289 L125.550135,193.474404 C125.591628,193.257671 125.450394,193.048906 125.234156,193.007472 C125.017918,192.965241 124.808861,193.106277 124.766571,193.32301" id="Fill-112" fill="#144449"></path>
                <path d="M122.790347,240.27214 C120.429279,244.009192 115.481331,245.127917 111.738253,242.769351 C107.995176,240.410786 106.875684,235.46975 109.237549,231.732698 C111.598616,227.995646 116.546564,226.877718 120.289642,229.23469 C124.03272,231.593256 125.152212,236.534292 122.790347,240.27214" id="Fill-113" fill="#F7D69F"></path>
            </g>
        </g>
    </g>
</svg>