<?xml version="1.0" encoding="UTF-8"?>
<svg width="356px" height="256px" viewBox="0 0 356 256" version="1.1" xmlns="http://www.w3.org/2000/svg" xmlns:xlink="http://www.w3.org/1999/xlink">
    <!-- Generator: Sketch 52.5 (67469) - http://www.bohemiancoding.com/sketch -->
    <title>Your Domain</title>
    <desc>Created with Sketch.</desc>
    <g id="Page-3" stroke="none" stroke-width="1" fill="none" fill-rule="evenodd">
        <g id="Group" transform="translate(-93.000000, 0.000000)">
            <g id="Your-Domain" transform="translate(93.000000, 0.000000)">
                <path d="M221.056607,177.602558 L239.911633,209.119689 C240.024939,209.30933 240.269902,209.370685 240.459011,209.257538 C240.64812,209.145187 240.70956,208.900566 240.596255,208.711721 L221.742027,177.193793 C221.628721,177.004948 221.383757,176.943593 221.194649,177.056741 C221.00554,177.169091 220.943301,177.413713 221.056607,177.602558" id="Fill-157" fill="#144449"></path>
                <path d="M218,0.398406375 L218,150.243825 C218,150.463745 218.177689,150.642231 218.398406,150.642231 C218.618327,150.642231 218.796813,150.463745 218.796813,150.243825 L218.796813,0.398406375 C218.796813,0.178486056 218.618327,-1.42108547e-14 218.398406,-1.42108547e-14 C218.177689,-1.42108547e-14 218,0.178486056 218,0.398406375" id="Fill-158" fill="#144449"></path>
                <path d="M221.969896,144.326693 C221.969896,146.248606 220.40915,147.806375 218.484549,147.806375 C216.560746,147.806375 215,146.248606 215,144.326693 L215,136.479681 C215,134.557769 216.560746,133 218.484549,133 C220.40915,133 221.969896,134.557769 221.969896,136.479681 L221.969896,144.326693" id="Fill-159" fill="#1A4556"></path>
                <path d="M231.521523,161.894024 C229.44771,161.894024 227.766477,163.572908 227.766477,165.643825 C227.766477,170.953785 223.456073,175.258964 218.138684,175.258964 C212.821295,175.258964 208.510093,170.953785 208.510093,165.643825 C208.510093,160.359363 212.780601,156.074104 218.062881,156.032669 L218.126715,156.035857 C220.51172,156.035857 222.445098,154.105976 222.445098,151.724303 L222.445098,142 L213.808332,142 L213.808332,149.101992 C206.443461,151.020717 201,157.688446 201,165.643825 C201,175.095618 208.67287,182.757769 218.138684,182.757769 C227.603699,182.757769 235.27657,175.095618 235.27657,165.643825 C235.27657,163.572908 233.596135,161.894024 231.521523,161.894024" id="Fill-160" fill="#FFFFFF"></path>
                <path d="M223,152.016733 L223,152.015936 L223,152.016733 M223,152.00239 L223,152 L223,152.00239" id="Fill-161" fill="#D9DAD5"></path>
                <polyline id="Fill-163" fill="#1592CE" points="250.691389 255.725896 179 245.610359 186.160601 195 257.852788 205.116335 250.691389 255.725896"></polyline>
                <path d="M218.158352,175.232348 L185.036383,247.40924 C184.944621,247.60924 185.032393,247.845097 185.232673,247.937527 C185.43375,248.02916 185.669937,247.940714 185.761699,247.740714 L218.883668,175.564619 C218.975429,175.364619 218.887657,175.127965 218.687377,175.036332 C218.487098,174.944698 218.250113,175.032348 218.158352,175.232348" id="Fill-172" fill="#144449"></path>
                <path d="M30.0190259,62.5201946 L48.8732539,121.477167 C48.9402798,121.686728 49.1652953,121.802266 49.3751503,121.735334 C49.5850052,121.668402 49.7007047,121.444497 49.6336788,121.234936 L30.7786529,62.2771667 C30.711627,62.0676049 30.4874093,61.9520671 30.2775544,62.0189993 C30.0676995,62.0859316 29.952,62.3106328 30.0190259,62.5201946" id="Fill-179" fill="#144449"></path>
                <path d="M289.874509,48.2760299 L271.019483,106.436189 C270.95166,106.645751 271.066561,106.870452 271.276416,106.938181 C271.486271,107.00591 271.711287,106.891169 271.77911,106.681608 L290.633338,48.5214482 C290.701162,48.3118865 290.586261,48.0871853 290.377204,48.0194562 C290.167349,47.9517271 289.942333,48.0664681 289.874509,48.2760299" id="Fill-180" fill="#144449"></path>
                <polyline id="Fill-181" fill="#22B3FF" points="355.850912 145.990438 1.61500518 155.048606 5.68434189e-14 92.0581673 354.236705 83 355.850912 145.990438"></polyline>
                <text transform="translate(175.858702, 118.390312) rotate(-1.000000) translate(-175.858702, -118.390312) " font-family="Helvetica" font-size="36" font-weight="normal" fill="#FFFFFF">
                    <tspan x="67.3587017" y="131.890312">Your Domain</tspan>
                </text>
                <path d="M27,0.398406375 L27,30.2605578 C27,30.4804781 27.1784861,30.6589641 27.3984064,30.6589641 C27.6183267,30.6589641 27.7968127,30.4804781 27.7968127,30.2605578 L27.7968127,0.398406375 C27.7968127,0.178486056 27.6183267,-1.0658141e-14 27.3984064,-1.0658141e-14 C27.1784861,-1.0658141e-14 27,0.178486056 27,0.398406375" id="Fill-186" fill="#144449"></path>
                <path d="M31.6726736,23.0932271 C31.6726736,25.4844622 29.7305181,27.4231076 27.3359378,27.4231076 C24.9413575,27.4231076 23,25.4844622 23,23.0932271 L23,13.3298805 C23,10.9386454 24.9413575,9 27.3359378,9 C29.7305181,9 31.6726736,10.9386454 31.6726736,13.3298805 L31.6726736,23.0932271" id="Fill-187" fill="#1B6190"></path>
                <path d="M43.9773575,45.752988 C41.3960622,45.752988 39.3046943,47.8414343 39.3046943,50.4183267 C39.3046943,57.025498 33.9410259,62.3816733 27.3246114,62.3816733 C20.7081969,62.3816733 15.3445285,57.025498 15.3445285,50.4183267 C15.3445285,43.8438247 20.6571295,38.5123506 27.2288601,38.459761 L27.3102487,38.4645418 C30.2777409,38.4645418 32.6834922,36.0621514 32.6834922,33.0988048 L32.6834922,21 L21.9370052,21 L21.9370052,29.8111554 C12.7688187,32.1944223 6,40.5163347 6,50.4183267 C6,62.1792829 15.5472021,71.7131474 27.3246114,71.7131474 C39.1020207,71.7131474 48.6492228,62.1792829 48.6492228,50.4183267 C48.6492228,47.8414343 46.5578549,45.752988 43.9773575,45.752988" id="Fill-188" fill="#FFFFFF"></path>
                <path d="M26.5207117,62.379006 L22.0004526,154.951118 C21.9900796,155.171038 22.1592402,155.358289 22.3794682,155.368647 C22.5996962,155.379803 22.7864112,155.210082 22.7975822,154.990161 L27.3170433,62.417253 C27.3282143,62.1981295 27.1582558,62.0108785 26.9380278,62.0005199 C26.7185977,61.9893645 26.5310848,62.1590856 26.5207117,62.379006" id="Fill-189" fill="#144449"></path>
                <path d="M293,0.398406375 L293,15.7290837 C293,15.949004 293.177689,16.12749 293.398406,16.12749 C293.618327,16.12749 293.796813,15.949004 293.796813,15.7290837 L293.796813,0.398406375 C293.796813,0.178486056 293.618327,-1.59872116e-14 293.398406,-1.59872116e-14 C293.177689,-1.59872116e-14 293,0.178486056 293,0.398406375" id="Fill-190" fill="#144449"></path>
                <path d="M290,18.6956175 C290,20.510757 291.472974,21.9816733 293.290653,21.9816733 C295.108332,21.9816733 296.581306,20.510757 296.581306,18.6956175 L296.581306,11.2860558 C296.581306,9.47091633 295.108332,8 293.290653,8 C291.472974,8 290,9.47091633 290,11.2860558 L290,18.6956175" id="Fill-191" fill="#1B6190"></path>
                <path d="M297.272943,23.7059761 L297.272943,17 L289.117326,17 L289.117326,26.1816733 C289.117326,28.4310757 290.942187,30.2541833 293.194736,30.2541833 L293.23543,30.2501992 C298.23285,30.2780876 302.275948,34.3298805 302.275948,39.3266932 C302.275948,44.3410359 298.204922,48.4063745 293.184363,48.4063745 C288.163005,48.4063745 284.091979,44.3410359 284.091979,39.3266932 C284.091979,37.3713147 282.504104,35.7856574 280.546788,35.7856574 C278.587876,35.7856574 277,37.3713147 277,39.3266932 C277,48.2525896 284.245979,55.4884462 293.184363,55.4884462 C302.121948,55.4884462 309.367927,48.2525896 309.367927,39.3266932 C309.367927,31.8143426 304.226881,25.5171315 297.272943,23.7059761" id="Fill-192" fill="#FFFFFF"></path>
                <path d="M293.037175,48.5665512 L338.768791,146.583284 C338.861351,146.782487 339.099133,146.868543 339.298615,146.776113 C339.498097,146.682886 339.585071,146.446233 339.491714,146.246233 L293.760895,48.2302963 C293.667537,48.0310931 293.430553,47.9442405 293.230273,48.0374676 C293.030791,48.1306947 292.944615,48.367348 293.037175,48.5665512" id="Fill-193" fill="#144449"></path>
            </g>
        </g>
    </g>
</svg>